# xmcd
# 
# Track frame offsets:
#     150
#     37025
#     61201
#     87561
#     111316
#     135168
#     167436
#     183087
#     206452
# 
# Disc length: 2971
# 
# Revision: 2
# Processed by: cddbd v1.5.2PL0 Copyright (c) Steve Scherf et al.
# Submitted via: BonkEnc v1.0.8
# 
DISCID=700b9909
DTITLE=Iro Haarla - Ulf Krokfors Loco Motife - Penguin Beguine
DYEAR=2005
DGENRE=Contemporary Jazz
TTITLE0=Penguin Beguine
TTITLE1=At Night, Cat Walking
TTITLE2=Frosty Night
TTITLE3=Bells
TTITLE4=Samoaja
TTITLE5=Farewell Song
TTITLE6=Voice Behind The Wall
TTITLE7=Crimcum Cramcum
TTITLE8=Beside You
EXTD=YEAR: 2005
EXTT0=
EXTT1=
EXTT2=
EXTT3=
EXTT4=
EXTT5=
EXTT6=
EXTT7=
EXTT8=
PLAYORDER=
